<svg width="46" height="50" viewBox="0 0 46 50" fill="none" xmlns="http://www.w3.org/2000/svg">
<path d="M35.942 3.21901C46.575 9.23801 49.05 22.7379 41.652 36.3919C35.152 48.3969 20.952 53.5239 10.375 47.4119C-0.202017 41.2999 -2.27099 24.2488 2.27501 14.4358C8.87501 0.186811 24.192 -3.43201 35.941 3.21999" fill="#ADA9A9"/>
<g filter="url(#filter0_d_64_46)">
<path d="M35.693 13.3411C36.6593 14.4862 37.3703 15.8243 37.7786 17.2659C38.187 18.7075 38.2832 20.2197 38.061 21.7014C37.8083 23.3647 37.1822 24.949 36.2296 26.3357C35.2771 27.7225 34.0228 28.8755 32.561 29.7083C29.7722 31.2166 26.6365 31.9667 23.467 31.8841C23.442 32.4001 23.338 34.1842 23.287 34.4622C23.233 34.7834 23.0949 35.0846 22.887 35.3352C22.4737 35.7954 21.9286 36.1169 21.326 36.2561C20.9067 36.3774 20.4734 36.4433 20.037 36.4514C19.9814 36.4525 19.9259 36.4486 19.871 36.4402C19.4949 36.4016 19.1443 36.2325 18.88 35.9622C18.635 35.684 18.4893 35.3322 18.466 34.9622L18.439 34.6101C18.371 34.3101 17.99 18.9841 18.064 19.2561C18.12 17.4201 21.083 17.1011 22.692 17.4231C24.301 17.7451 23.892 19.709 23.852 22.115C23.852 22.115 23.775 25.2803 23.626 28.6253C25.4459 28.539 27.2246 28.0537 28.836 27.2034C30.2733 26.608 31.4946 25.5879 32.3364 24.2796C33.1783 22.9713 33.6007 21.4369 33.547 19.8821C33.547 16.4301 30.188 12.5662 23.99 12.5662C17.792 12.5662 15.134 14.1282 12.133 16.6092C11.458 17.1702 10.933 17.7342 10.442 18.1092C9.95096 18.4842 8.64196 18.5372 8.29096 17.6682C7.86896 16.6232 8.65899 15.4555 9.12299 14.8885C10.3957 13.3913 11.9262 12.1338 13.642 11.1761C16.3764 9.60794 19.4501 8.72597 22.6 8.60525C26.118 8.51725 31.669 8.80512 35.668 13.3191M22.256 38.719C21.9474 38.4741 21.5868 38.3031 21.202 38.219C21.0776 38.1959 20.9514 38.1842 20.825 38.1834C20.463 38.195 20.1092 38.2936 19.7934 38.471C19.4776 38.6484 19.2092 38.8993 19.011 39.2024C18.6438 39.7189 18.4917 40.3576 18.587 40.9842C18.6362 41.3459 18.7836 41.6875 19.013 41.9715C19.3017 42.2856 19.6767 42.5072 20.091 42.6092C20.3565 42.6842 20.6311 42.7225 20.907 42.7224C21.4681 42.7346 22.0159 42.5514 22.457 42.2044C22.6941 42.0152 22.8845 41.7738 23.0135 41.4993C23.1425 41.2248 23.2066 40.9246 23.201 40.6214C23.1956 40.2541 23.108 39.8926 22.9444 39.5637C22.7809 39.2349 22.5456 38.9473 22.256 38.7215" fill="#7B1010"/>
</g>
<defs>
<filter id="filter0_d_64_46" x="6.1709" y="7.59331" width="34.0067" height="38.1297" filterUnits="userSpaceOnUse" color-interpolation-filters="sRGB">
<feFlood flood-opacity="0" result="BackgroundImageFix"/>
<feColorMatrix in="SourceAlpha" type="matrix" values="0 0 0 0 0 0 0 0 0 0 0 0 0 0 0 0 0 0 127 0" result="hardAlpha"/>
<feOffset dy="1"/>
<feGaussianBlur stdDeviation="1"/>
<feComposite in2="hardAlpha" operator="out"/>
<feColorMatrix type="matrix" values="0 0 0 0 0 0 0 0 0 0 0 0 0 0 0 0 0 0 0.7 0"/>
<feBlend mode="normal" in2="BackgroundImageFix" result="effect1_dropShadow_64_46"/>
<feBlend mode="normal" in="SourceGraphic" in2="effect1_dropShadow_64_46" result="shape"/>
</filter>
</defs>
</svg>
